<svg width="278" height="281" viewBox="0 0 278 281" xmlns="http://www.w3.org/2000/svg"><g fill="none" fill-rule="evenodd"><g stroke-width="4"><path stroke="#2E80DD" fill="#2E80DD" d="M72.08 103.792l-.35 75.799 66.87 38.85 65.13-38.159-11.302-6.566-53.537 31.045-55.515-32.335.059-62.034z"/><path stroke="#3ACF6E" fill="#3ACF6E" d="M205.879 176.941l.35-75.799-66.87-38.85-65.13 38.159 11.303 6.566 53.537-31.045 55.515 32.335-.06 62.034z"/></g><g fill="#FFF" fill-rule="nonzero"><path d="M145.223 171.3l-.06-15.08 30.578-35.91h-14.666l-15.912 21.42V101.5h-12.977l.059 69.8z"/><path d="M153.963 154.105l8.998 12.195h15.467l-15.467-21.84zm-30.535 0L114.43 166.3H98.963l15.467-21.84z"/><path d="M132.107 171.3l-.237-15.08-30.578-35.91h14.667l15.91 21.42V101.5h12.978l.237 69.8z"/></g></g></svg>